<?xml version="1.0" encoding="UTF-8"?>
<svg id="Layer_1" data-name="Layer 1" xmlns="http://www.w3.org/2000/svg" xmlns:xlink="http://www.w3.org/1999/xlink" viewBox="0 0 477.87 477.87">
  <defs>
    <style>
      .cls-1 {
        fill: #5c6b99;
      }

      .cls-2 {
        fill: url(#radial-gradient);
      }

      .cls-3 {
        fill: #001668;
      }

      .cls-4 {
        fill: #2e3f73;
      }

      .cls-5 {
        fill: #e5e55c;
      }
    </style>
    <radialGradient id="radial-gradient" cx="238.94" cy="238.94" fx="238.94" fy="238.94" r="398.61" gradientUnits="userSpaceOnUse">
      <stop offset="0" stop-color="#1e9cd7"/>
      <stop offset=".5" stop-color="#0075be"/>
      <stop offset=".99" stop-color="#005b97"/>
    </radialGradient>
  </defs>
  <g>
    <path class="cls-2" d="M52.79,5h372.3c26.37,0,47.79,21.41,47.79,47.79v372.3c0,26.37-21.41,47.79-47.79,47.79H52.79c-26.37,0-47.79-21.41-47.79-47.79V52.79C5,26.41,26.41,5,52.79,5Z"/>
    <path class="cls-3" d="M425.09,10c23.59,0,42.79,19.19,42.79,42.79v372.3c0,23.59-19.19,42.79-42.79,42.79H52.79c-23.59,0-42.79-19.19-42.79-42.79V52.79c0-23.59,19.19-42.79,42.79-42.79h372.3M425.09,0H52.79C23.63,0,0,23.63,0,52.79v372.3C0,454.24,23.63,477.87,52.79,477.87h372.3c29.15,0,52.79-23.63,52.79-52.79V52.79C477.87,23.63,454.24,0,425.09,0h0Z"/>
  </g>
  <g>
    <rect class="cls-1" x="77.52" y="250.34" width="357.6" height="52.55" transform="translate(-95.37 140.49) rotate(-26.02)"/>
    <circle class="cls-5" cx="205.81" cy="177.63" r="67.59"/>
    <g id="izJqBT">
      <g>
        <path class="cls-4" d="M86.51,356.4c-30.87-2.97-69.28-12.77-71.81-50.16-2.49-36.79,38.91-105.95,59.95-136.3,28.65-41.32,61.52-77.83,110.98-94.03,38.28-12.54,84.71-11.08,124.34-6.96,32.62,3.39,98.13,13.29,121.74,36.32,25.73,25.09,9.4,60.07-6.28,85.52-.23,2.41,9.8,19.3,11.13,24.15,1.48,5.41-1.75,12-1.28,15.16.49,3.28,2.8,8.22,3.6,12.11,13.07,63.9-65.02,119.78-113.67,145.24-54.82,28.7-165.99,69.01-211.38,5.68-.93-1.3-1.28-3.15-2.31-4.28-.69-.76-7.34-3.57-9.17-4.94-7.74-5.8-10.36-19.47-15.82-27.51ZM203.01,153.8c13.55-10.03,8.04-31.62-8.43-35.25-20.63-4.55-33.97,20.61-18.37,35.52,5.17,4.94,11.38,5.16,18.13,5.01l6.1,12.49c.03.06-.38,1.24-.44,1.27l-9.66,4.71c-1.47.72-1,5.02.09,6.59.97,1.41,4.21,2.57,5.49,1.95l9.37-4.58,18.58,38.05c-11.1,4.35-22.06,4.99-32.3-1.6-1.15-.74-4.97-3.37-5.66-4.16-.97-1.11,3.68-3.17,3.58-4.87.33-3.42-7.16-4.98-9.66-6.32-4.09-2.19-7.84-4.86-11.55-7.63-3.47-1.58-2.81,3.84-2.76,6.18.09,4.29,3.06,23.1,6.25,24.89,2.51,1.41,5.4-4.81,6.55-4.62,12.32,11.57,28.13,15.72,44.7,13.63,11.94-1.5,14.76-3.4,23.21-11.83,11.54-11.52,18.13-26.39,16.21-42.87.53-1.25,7.23.55,7.67-2.32.58-3.73-16.44-23.18-20.89-23.28-1.18-.03-.92.16-1.25,1.02-.79,2.02-.49,8.61-.94,11.49s-3.2,10.94-2.77,12.73c.73,3.01,6.88.77,7.44,1.68.29.47.21,4.68.18,5.68-.47,12.24-8.54,21.94-18.93,27.76l-18.58-38.05,8.81-4.3c2.94-1.44,2.67-6.58.17-8.67-.49-.41-2.62-1.39-2.9-1.25l-10.51,5.13-6.93-14.2ZM412.63,198.44c-28.44,4.92-56.62,12.35-83.89,21.98-70.81,24.98-152.95,66.87-211.02,114.61-5.98,4.92-12.66,10.18-17.39,16.23l7.35,15.05c28.69-26.21,60.52-49.02,94.24-68.51,48.14-27.82,103.9-53.64,157.2-69.51,20.14-6,40.74-9.78,61.28-13.95l-7.76-15.9Z"/>
        <path class="cls-4" d="M183.64,130.36c9.86-7.6,22.8,6.73,13.4,15.48-11.24,10.46-24.13-7.21-13.4-15.48Z"/>
      </g>
    </g>
  </g>
</svg>